<?xml version="1.0" encoding="UTF-8" standalone="no"?>
<svg
   xml:space="preserve"
   style="enable-background:new 0 0 383.38 922.47;"
   viewBox="0 0 383.38 922.47"
   y="0px"
   x="0px"
   id="Layer_1"
   version="1.1"
   sodipodi:docname="izzy_logo_black.svg"
   inkscape:version="1.2.1 (9c6d41e, 2022-07-14)"
   xmlns:inkscape="http://www.inkscape.org/namespaces/inkscape"
   xmlns:sodipodi="http://sodipodi.sourceforge.net/DTD/sodipodi-0.dtd"
   xmlns="http://www.w3.org/2000/svg"
   xmlns:svg="http://www.w3.org/2000/svg"><defs
   id="defs139">
	
</defs><sodipodi:namedview
   id="namedview137"
   pagecolor="#505050"
   bordercolor="#ffffff"
   borderopacity="1"
   inkscape:showpageshadow="0"
   inkscape:pageopacity="0"
   inkscape:pagecheckerboard="1"
   inkscape:deskcolor="#505050"
   showgrid="false"
   inkscape:zoom="1.2181738"
   inkscape:cx="57.873517"
   inkscape:cy="435.48796"
   inkscape:window-width="1800"
   inkscape:window-height="1097"
   inkscape:window-x="0"
   inkscape:window-y="44"
   inkscape:window-maximized="0"
   inkscape:current-layer="Layer_1" />
<rect
   style="fill:#000000;stroke-width:14.8025"
   id="rect414"
   width="383.38004"
   height="685.26239"
   x="-1.5431795e-05"
   y="118.60378"
   inkscape:label="rect414"
   ry="34.368591" /><path
   d="m 194.26397,397.5761 c 19.02328,0 37.86605,0 56.77727,0 -0.11203,0.83414 -0.68472,1.12671 -1.08313,1.52509 -18.08331,18.10823 -36.17287,36.22268 -54.29977,54.29354 -1.03954,1.03957 -1.43172,2.05422 -1.43172,3.51084 0.0498,15.13895 0.0311,30.2779 0.0311,45.41684 0,0.58513 0,1.16405 0,1.90482 19.01084,0 37.86604,0 57.10096,0 -30.92528,61.66381 -61.7136,123.05373 -92.50816,184.46855 -1.8737,0 -3.70382,0 -5.84518,0 29.9542,-59.7341 59.84615,-119.33747 89.81901,-179.11513 -16.25319,0 -32.30096,0 -48.52927,0 0,18.92989 0,37.86602 0,56.88309 -1.79901,0 -3.41747,0 -5.16668,0 0,-18.94236 0,-37.84114 0,-56.94535 -19.0046,0 -37.87847,0 -57.10718,0 0.62871,-0.66607 0.97731,-1.05824 1.34458,-1.43173 18.19537,-18.14556 36.38451,-36.29113 54.60477,-54.40558 0.80925,-0.80301 1.13295,-1.59979 1.13295,-2.73273 -0.0311,-15.43774 -0.0249,-30.87548 -0.0249,-46.31322 0,-0.54158 0,-1.07691 0,-1.76165 -18.76183,0 -37.41162,0 -56.05518,0 -0.1743,-0.21165 -0.34859,-0.42952 -0.5229,-0.64116 0.56648,-0.36104 1.22009,-0.62872 1.68695,-1.08936 17.91525,-17.85923 35.8056,-35.74336 53.72708,-53.60258 0.84036,-0.84036 1.19518,-1.66203 1.19518,-2.85723 -0.0374,-15.33813 -0.025,-30.67628 -0.025,-46.01441 0,-0.58514 0,-1.17029 0,-1.92972 -19.03572,0 -37.92205,0 -56.88309,0 0,-1.79278 0,-3.40503 0,-5.2227 18.97348,0 37.85982,0 56.88309,0 0,-19.3532 0,-38.5072 0,-57.74213 1.74921,0 3.36767,0 5.12309,0 0,19.17891 0,38.32669 0,57.66744 19.02951,0 37.91584,0 56.85819,0 -0.0249,0.89016 -0.64116,1.15784 -1.0271,1.54377 -18.18914,18.1518 -36.38451,36.30359 -54.60478,54.41804 -0.84036,0.84037 -1.20764,1.65582 -1.20141,2.85722 0.0374,15.13894 0.025,30.2779 0.025,45.41684 0.006,0.53535 0.006,1.08314 0.006,1.8986 z m 0.12445,5.27871 c 0,14.69697 0,29.37527 0,44.29014 14.76545,-14.91487 29.36283,-29.66786 43.82949,-44.29014 -14.36082,0 -29.03291,0 -43.82949,0 z m 43.64276,-106.03487 c -14.31106,0 -28.97068,0 -43.6801,0 0,14.69697 0,29.30057 0,43.92909 14.64095,-14.7281 29.22588,-29.38774 43.6801,-43.92909 z m -49.03352,163.52179 c -14.59738,14.72809 -29.09515,29.35658 -43.39996,43.78589 14.19897,0 28.80258,0 43.39996,0 0,-14.64717 0,-29.1574 0,-43.78589 z m -43.207,-62.87769 c 14.31103,0 28.75902,0 43.14476,0 0,-14.504 0,-28.87105 0,-43.49957 -14.52268,14.64095 -28.83995,29.07649 -43.14476,43.49957 z"
   id="path132"
   style="fill:#ffffff;stroke-width:0.62249" />
</svg>
