<svg xml:space="preserve" style="enable-background:new 0 0 383.38 922.47;" viewBox="0 0 383.38 922.47" y="0px" x="0px" xmlns:xlink="http://www.w3.org/1999/xlink" xmlns="http://www.w3.org/2000/svg" id="Layer_1" version="1.1">
<g>
	<path d="M195.82,358.98c30.56,0,60.83,0,91.21,0c-0.18,1.34-1.1,1.81-1.74,2.45c-29.05,29.09-58.11,58.19-87.23,87.22
		c-1.67,1.67-2.3,3.3-2.3,5.64c0.08,24.32,0.05,48.64,0.05,72.96c0,0.94,0,1.87,0,3.06c30.54,0,60.83,0,91.73,0
		c-49.68,99.06-99.14,197.68-148.61,296.34c-3.01,0-5.95,0-9.39,0c48.12-95.96,96.14-191.71,144.29-287.74c-26.11,0-51.89,0-77.96,0
		c0,30.41,0,60.83,0,91.38c-2.89,0-5.49,0-8.3,0c0-30.43,0-60.79,0-91.48c-30.53,0-60.85,0-91.74,0c1.01-1.07,1.57-1.7,2.16-2.3
		c29.23-29.15,58.45-58.3,87.72-87.4c1.3-1.29,1.82-2.57,1.82-4.39c-0.05-24.8-0.04-49.6-0.04-74.4c0-0.87,0-1.73,0-2.83
		c-30.14,0-60.1,0-90.05,0c-0.28-0.34-0.56-0.69-0.84-1.03c0.91-0.58,1.96-1.01,2.71-1.75c28.78-28.69,57.52-57.42,86.31-86.11
		c1.35-1.35,1.92-2.67,1.92-4.59c-0.06-24.64-0.04-49.28-0.04-73.92c0-0.94,0-1.88,0-3.1c-30.58,0-60.92,0-91.38,0
		c0-2.88,0-5.47,0-8.39c30.48,0,60.82,0,91.38,0c0-31.09,0-61.86,0-92.76c2.81,0,5.41,0,8.23,0c0,30.81,0,61.57,0,92.64
		c30.57,0,60.91,0,91.34,0c-0.04,1.43-1.03,1.86-1.65,2.48c-29.22,29.16-58.45,58.32-87.72,87.42c-1.35,1.35-1.94,2.66-1.93,4.59
		c0.06,24.32,0.04,48.64,0.04,72.96C195.82,356.79,195.82,357.67,195.82,358.98z M196.02,367.46c0,23.61,0,47.19,0,71.15
		c23.72-23.96,47.17-47.66,70.41-71.15C243.36,367.46,219.79,367.46,196.02,367.46z M266.13,197.12c-22.99,0-46.54,0-70.17,0
		c0,23.61,0,47.07,0,70.57C219.48,244.03,242.91,220.48,266.13,197.12z M187.36,459.81c-23.45,23.66-46.74,47.16-69.72,70.34
		c22.81,0,46.27,0,69.72,0C187.36,506.62,187.36,483.31,187.36,459.81z M117.95,358.8c22.99,0,46.2,0,69.31,0
		c0-23.3,0-46.38,0-69.88C163.93,312.44,140.93,335.63,117.95,358.8z"></path>
</g>
</svg>
